<svg width="400" height="200" viewBox="0 0 400 200" xmlns="http://www.w3.org/2000/svg"><defs><clipPath id="satori_bc-id"><path x="0" y="0" width="400" height="200" d="M10,0 h380 a10,10 0 0 1 10,10 v180 a10,10 0 0 1 -10,10 h-380 a10,10 0 0 1 -10,-10 v-180 a10,10 0 0 1 10,-10"/></clipPath></defs><mask id="satori_ms-id-0" maskUnits="userSpaceOnUse"><rect x="0" y="0" width="400" height="200" fill="#fff"/><path x="0" y="0" width="400" height="200" fill="#000"  stroke-width="0" d="M10,0 h380 a10,10 0 0 1 10,10 v180 a10,10 0 0 1 -10,10 h-380 a10,10 0 0 1 -10,-10 v-180 a10,10 0 0 1 10,-10"/></mask><defs><filter id="satori_s-id-0" x="-64%" y="-128%" width="227.99999999999997%" height="356%"><feGaussianBlur stdDeviation="16" result="b"/><feFlood flood-color="rgba(0, 0, 0, 0.37)" in="SourceGraphic" result="f"/><feComposite in="f" in2="b" operator="in"/></filter></defs><g mask="url(#satori_ms-id-0)" filter="url(#satori_s-id-0)" opacity="1"><path x="0" y="8" width="400" height="200" fill="#fff" stroke="#fff" stroke-width="0" d="M10,8 h380 a10,10 0 0 1 10,10 v180 a10,10 0 0 1 -10,10 h-380 a10,10 0 0 1 -10,-10 v-180 a10,10 0 0 1 10,-10"/></g><mask id="satori_om-id"><rect x="1" y="1" width="398" height="198" fill="#fff"/><path width="400" height="200" fill="none" stroke="#000" stroke-width="2" d="M2.9290000000000003,2.9290000000000003 A10,10 0 0 1 10,0 h380 a10,10 0 0 1 10,10 v180 a10,10 0 0 1 -10,10 h-380 a10,10 0 0 1 -10,-10 v-180 A10,10 0 0 1 2.9290000000000003,2.9290000000000003"/></mask><path x="0" y="0" width="400" height="200" fill="#1a1b27" d="M10,0 h380 a10,10 0 0 1 10,10 v180 a10,10 0 0 1 -10,10 h-380 a10,10 0 0 1 -10,-10 v-180 a10,10 0 0 1 10,-10"/><path width="400" height="200" clip-path="url(#satori_bc-id)" fill="none" stroke="rgba(112, 165, 253, 0.18)" stroke-width="2" d="M2.9290000000000003,2.9290000000000003 A10,10 0 0 1 10,0 h380 a10,10 0 0 1 10,10 v180 a10,10 0 0 1 -10,10 h-380 a10,10 0 0 1 -10,-10 v-180 A10,10 0 0 1 2.9290000000000003,2.9290000000000003"/><defs><clipPath id="satori_bc-id-0"><rect x="21" y="42" width="358" height="30"/></clipPath></defs><mask id="satori_om-id-0"><rect x="21" y="42" width="358" height="28" fill="#fff"/><path width="358" height="30" fill="none" stroke="#000" stroke-width="4" d="M379,72 A0,0 0 0 1 379,72 h-358 A0,0 0 0 1 21,72"/></mask><path width="358" height="30" clip-path="url(#satori_bc-id-0)" fill="none" stroke="#414868" stroke-width="4" d="M379,72 A0,0 0 0 1 379,72 h-358 A0,0 0 0 1 21,72"/><g  ><path fill="#bf91f3" d="M22.6 60L21 60L21 58.4L21 56.8L21 55.1L21 53.5L21 51.9L21 50.3L21 48.6L21 47L22.6 47L24.3 47L24.3 48.6L25.9 48.6L25.9 50.3L27.5 50.3L29.1 50.3L29.1 48.6L30.8 48.6L30.8 47L32.4 47L34 47L34 48.6L34 50.3L34 51.9L34 53.5L34 55.1L34 56.8L34 58.4L34 60L32.4 60L30.8 60L30.8 58.4L30.8 56.8L30.8 55.1L30.8 53.5L29.1 53.5L29.1 55.1L27.5 55.1L25.9 55.1L25.9 53.5L24.3 53.5L24.3 55.1L24.3 56.8L24.3 58.4L24.3 60L22.6 60ZM37.3 60L35.6 60L35.6 58.4L35.6 56.8L35.6 55.1L35.6 53.5L35.6 51.9L35.6 50.3L35.6 48.6L37.3 48.6L37.3 47L38.9 47L40.5 47L42.1 47L43.8 47L45.4 47L47 47L47 48.6L48.6 48.6L48.6 50.3L48.6 51.9L48.6 53.5L48.6 55.1L48.6 56.8L48.6 58.4L48.6 60L47 60L45.4 60L45.4 58.4L45.4 56.8L43.8 56.8L42.1 56.8L40.5 56.8L38.9 56.8L38.9 58.4L38.9 60L37.3 60ZM38.9 51.9L38.9 53.5L40.5 53.5L42.1 53.5L43.8 53.5L45.4 53.5L45.4 51.9L45.4 50.3L43.8 50.3L42.1 50.3L40.5 50.3L38.9 50.3L38.9 51.9ZM51.9 60L50.3 60L50.3 58.4L50.3 56.8L51.9 56.8L53.5 56.8L55.1 56.8L56.8 56.8L58.4 56.8L60 56.8L60 55.1L58.4 55.1L56.8 55.1L55.1 55.1L53.5 55.1L51.9 55.1L51.9 53.5L50.3 53.5L50.3 51.9L50.3 50.3L50.3 48.6L51.9 48.6L51.9 47L53.5 47L55.1 47L56.8 47L58.4 47L60 47L61.6 47L63.3 47L63.3 48.6L63.3 50.3L61.6 50.3L60 50.3L58.4 50.3L56.8 50.3L55.1 50.3L53.5 50.3L53.5 51.9L55.1 51.9L56.8 51.9L58.4 51.9L60 51.9L61.6 51.9L61.6 53.5L63.3 53.5L63.3 55.1L63.3 56.8L63.3 58.4L61.6 58.4L61.6 60L60 60L58.4 60L56.8 60L55.1 60L53.5 60L51.9 60ZM66.5 60L64.9 60L64.9 58.4L64.9 56.8L66.5 56.8L68.1 56.8L69.8 56.8L69.8 55.1L69.8 53.5L69.8 51.9L69.8 50.3L68.1 50.3L66.5 50.3L64.9 50.3L64.9 48.6L64.9 47L66.5 47L68.1 47L69.8 47L71.4 47L73 47L74.6 47L76.3 47L77.9 47L77.9 48.6L77.9 50.3L76.3 50.3L74.6 50.3L73 50.3L73 51.9L73 53.5L73 55.1L73 56.8L74.6 56.8L76.3 56.8L77.9 56.8L77.9 58.4L77.9 60L76.3 60L74.6 60L73 60L71.4 60L69.8 60L68.1 60L66.5 60ZM81.1 50.3L79.5 50.3L79.5 48.6L79.5 47L81.1 47L82.8 47L84.4 47L86 47L87.6 47L89.3 47L90.9 47L92.5 47L92.5 48.6L92.5 50.3L90.9 50.3L89.3 50.3L87.6 50.3L87.6 51.9L87.6 53.5L87.6 55.1L87.6 56.8L87.6 58.4L87.6 60L86 60L84.4 60L84.4 58.4L84.4 56.8L84.4 55.1L84.4 53.5L84.4 51.9L84.4 50.3L82.8 50.3L81.1 50.3ZM95.8 60L94.1 60L94.1 58.4L94.1 56.8L94.1 55.1L94.1 53.5L94.1 51.9L94.1 50.3L94.1 48.6L95.8 48.6L95.8 47L97.4 47L99 47L100.6 47L102.3 47L103.9 47L105.5 47L105.5 48.6L107.1 48.6L107.1 50.3L107.1 51.9L107.1 53.5L107.1 55.1L107.1 56.8L107.1 58.4L107.1 60L105.5 60L103.9 60L103.9 58.4L103.9 56.8L102.3 56.8L100.6 56.8L99 56.8L97.4 56.8L97.4 58.4L97.4 60L95.8 60ZM97.4 51.9L97.4 53.5L99 53.5L100.6 53.5L102.3 53.5L103.9 53.5L103.9 51.9L103.9 50.3L102.3 50.3L100.6 50.3L99 50.3L97.4 50.3L97.4 51.9ZM110.4 60L108.8 60L108.8 58.4L108.8 56.8L110.4 56.8L112 56.8L113.6 56.8L115.3 56.8L116.9 56.8L118.5 56.8L118.5 55.1L116.9 55.1L115.3 55.1L113.6 55.1L112 55.1L110.4 55.1L110.4 53.5L108.8 53.5L108.8 51.9L108.8 50.3L108.8 48.6L110.4 48.6L110.4 47L112 47L113.6 47L115.3 47L116.9 47L118.5 47L120.1 47L121.8 47L121.8 48.6L121.8 50.3L120.1 50.3L118.5 50.3L116.9 50.3L115.3 50.3L113.6 50.3L112 50.3L112 51.9L113.6 51.9L115.3 51.9L116.9 51.9L118.5 51.9L120.1 51.9L120.1 53.5L121.8 53.5L121.8 55.1L121.8 56.8L121.8 58.4L120.1 58.4L120.1 60L118.5 60L116.9 60L115.3 60L113.6 60L112 60L110.4 60ZM125 60L123.4 60L123.4 58.4L123.4 56.8L125 56.8L126.6 56.8L128.3 56.8L128.3 55.1L128.3 53.5L128.3 51.9L128.3 50.3L126.6 50.3L125 50.3L123.4 50.3L123.4 48.6L123.4 47L125 47L126.6 47L128.3 47L129.9 47L131.5 47L133.1 47L134.8 47L136.4 47L136.4 48.6L136.4 50.3L134.8 50.3L133.1 50.3L131.5 50.3L131.5 51.9L131.5 53.5L131.5 55.1L131.5 56.8L133.1 56.8L134.8 56.8L136.4 56.8L136.4 58.4L136.4 60L134.8 60L133.1 60L131.5 60L129.9 60L128.3 60L126.6 60L125 60ZM139.6 60L138 60L138 58.4L138 56.8L138 55.1L138 53.5L138 51.9L138 50.3L138 48.6L139.6 48.6L139.6 47L141.3 47L142.9 47L144.5 47L146.1 47L147.8 47L149.4 47L149.4 48.6L151 48.6L151 50.3L151 51.9L151 53.5L151 55.1L151 56.8L151 58.4L151 60L149.4 60L147.8 60L147.8 58.4L147.8 56.8L146.1 56.8L144.5 56.8L142.9 56.8L141.3 56.8L141.3 58.4L141.3 60L139.6 60ZM141.3 51.9L141.3 53.5L142.9 53.5L144.5 53.5L146.1 53.5L147.8 53.5L147.8 51.9L147.8 50.3L146.1 50.3L144.5 50.3L142.9 50.3L141.3 50.3L141.3 51.9Z M164 60L162.4 60L162.4 58.4L162.4 56.8L162.4 55.1L162.4 53.5L162.4 51.9L162.4 50.3L162.4 48.6L162.4 47L164 47L165.6 47L165.6 48.6L165.6 50.3L165.6 51.9L165.6 53.5L165.6 55.1L165.6 56.8L167.3 56.8L168.9 56.8L170.5 56.8L172.1 56.8L173.8 56.8L175.4 56.8L175.4 58.4L175.4 60L173.8 60L172.1 60L170.5 60L168.9 60L167.3 60L165.6 60L164 60ZM178.6 60L177 60L177 58.4L177 56.8L177 55.1L177 53.5L177 51.9L177 50.3L177 48.6L177 47L178.6 47L180.3 47L181.9 47L183.5 47L185.1 47L186.8 47L188.4 47L190 47L190 48.6L190 50.3L188.4 50.3L186.8 50.3L185.1 50.3L183.5 50.3L181.9 50.3L180.3 50.3L180.3 51.9L181.9 51.9L183.5 51.9L185.1 51.9L186.8 51.9L188.4 51.9L188.4 53.5L188.4 55.1L186.8 55.1L185.1 55.1L183.5 55.1L181.9 55.1L180.3 55.1L180.3 56.8L181.9 56.8L183.5 56.8L185.1 56.8L186.8 56.8L188.4 56.8L190 56.8L190 58.4L190 60L188.4 60L186.8 60L185.1 60L183.5 60L181.9 60L180.3 60L178.6 60ZM193.3 60L191.6 60L191.6 58.4L191.6 56.8L191.6 55.1L191.6 53.5L191.6 51.9L191.6 50.3L191.6 48.6L191.6 47L193.3 47L194.9 47L194.9 48.6L196.5 48.6L196.5 50.3L198.1 50.3L198.1 51.9L199.8 51.9L199.8 53.5L201.4 53.5L201.4 51.9L201.4 50.3L201.4 48.6L201.4 47L203 47L204.6 47L204.6 48.6L204.6 50.3L204.6 51.9L204.6 53.5L204.6 55.1L204.6 56.8L204.6 58.4L204.6 60L203 60L201.4 60L201.4 58.4L199.8 58.4L199.8 56.8L198.1 56.8L198.1 55.1L196.5 55.1L196.5 53.5L194.9 53.5L194.9 55.1L194.9 56.8L194.9 58.4L194.9 60L193.3 60ZM207.9 58.4L206.3 58.4L206.3 56.8L206.3 55.1L206.3 53.5L206.3 51.9L206.3 50.3L206.3 48.6L207.9 48.6L207.9 47L209.5 47L211.1 47L212.8 47L214.4 47L216 47L217.6 47L219.3 47L219.3 48.6L219.3 50.3L217.6 50.3L216 50.3L214.4 50.3L212.8 50.3L211.1 50.3L209.5 50.3L209.5 51.9L209.5 53.5L209.5 55.1L209.5 56.8L211.1 56.8L212.8 56.8L214.4 56.8L216 56.8L216 55.1L214.4 55.1L212.8 55.1L212.8 53.5L212.8 51.9L214.4 51.9L216 51.9L217.6 51.9L219.3 51.9L219.3 53.5L219.3 55.1L219.3 56.8L219.3 58.4L217.6 58.4L217.6 60L216 60L214.4 60L212.8 60L211.1 60L209.5 60L207.9 60L207.9 58.4ZM222.5 58.4L220.9 58.4L220.9 56.8L220.9 55.1L220.9 53.5L220.9 51.9L220.9 50.3L220.9 48.6L220.9 47L222.5 47L224.1 47L224.1 48.6L224.1 50.3L224.1 51.9L224.1 53.5L224.1 55.1L224.1 56.8L225.8 56.8L227.4 56.8L229 56.8L230.6 56.8L230.6 55.1L230.6 53.5L230.6 51.9L230.6 50.3L230.6 48.6L230.6 47L232.3 47L233.9 47L233.9 48.6L233.9 50.3L233.9 51.9L233.9 53.5L233.9 55.1L233.9 56.8L233.9 58.4L232.3 58.4L232.3 60L230.6 60L229 60L227.4 60L225.8 60L224.1 60L222.5 60L222.5 58.4ZM237.1 60L235.5 60L235.5 58.4L235.5 56.8L235.5 55.1L235.5 53.5L235.5 51.9L235.5 50.3L235.5 48.6L237.1 48.6L237.1 47L238.8 47L240.4 47L242 47L243.6 47L245.3 47L246.9 47L246.9 48.6L248.5 48.6L248.5 50.3L248.5 51.9L248.5 53.5L248.5 55.1L248.5 56.8L248.5 58.4L248.5 60L246.9 60L245.3 60L245.3 58.4L245.3 56.8L243.6 56.8L242 56.8L240.4 56.8L238.8 56.8L238.8 58.4L238.8 60L237.1 60ZM238.8 51.9L238.8 53.5L240.4 53.5L242 53.5L243.6 53.5L245.3 53.5L245.3 51.9L245.3 50.3L243.6 50.3L242 50.3L240.4 50.3L238.8 50.3L238.8 51.9ZM251.8 58.4L250.1 58.4L250.1 56.8L250.1 55.1L251.8 55.1L253.4 55.1L253.4 56.8L255 56.8L256.6 56.8L256.6 55.1L256.6 53.5L256.6 51.9L256.6 50.3L255 50.3L253.4 50.3L253.4 48.6L253.4 47L255 47L256.6 47L258.3 47L259.9 47L261.5 47L263.1 47L263.1 48.6L263.1 50.3L261.5 50.3L259.9 50.3L259.9 51.9L259.9 53.5L259.9 55.1L259.9 56.8L259.9 58.4L258.3 58.4L258.3 60L256.6 60L255 60L253.4 60L251.8 60L251.8 58.4ZM266.4 60L264.8 60L264.8 58.4L264.8 56.8L264.8 55.1L264.8 53.5L264.8 51.9L264.8 50.3L264.8 48.6L264.8 47L266.4 47L268 47L269.6 47L271.3 47L272.9 47L274.5 47L276.1 47L277.8 47L277.8 48.6L277.8 50.3L276.1 50.3L274.5 50.3L272.9 50.3L271.3 50.3L269.6 50.3L268 50.3L268 51.9L269.6 51.9L271.3 51.9L272.9 51.9L274.5 51.9L276.1 51.9L276.1 53.5L276.1 55.1L274.5 55.1L272.9 55.1L271.3 55.1L269.6 55.1L268 55.1L268 56.8L269.6 56.8L271.3 56.8L272.9 56.8L274.5 56.8L276.1 56.8L277.8 56.8L277.8 58.4L277.8 60L276.1 60L274.5 60L272.9 60L271.3 60L269.6 60L268 60L266.4 60ZM281 60L279.4 60L279.4 58.4L279.4 56.8L281 56.8L282.6 56.8L284.3 56.8L285.9 56.8L287.5 56.8L289.1 56.8L289.1 55.1L287.5 55.1L285.9 55.1L284.3 55.1L282.6 55.1L281 55.1L281 53.5L279.4 53.5L279.4 51.9L279.4 50.3L279.4 48.6L281 48.6L281 47L282.6 47L284.3 47L285.9 47L287.5 47L289.1 47L290.8 47L292.4 47L292.4 48.6L292.4 50.3L290.8 50.3L289.1 50.3L287.5 50.3L285.9 50.3L284.3 50.3L282.6 50.3L282.6 51.9L284.3 51.9L285.9 51.9L287.5 51.9L289.1 51.9L290.8 51.9L290.8 53.5L292.4 53.5L292.4 55.1L292.4 56.8L292.4 58.4L290.8 58.4L290.8 60L289.1 60L287.5 60L285.9 60L284.3 60L282.6 60L281 60Z M305.4 50.3L303.8 50.3L303.8 48.6L303.8 47L305.4 47L307 47L308.6 47L310.3 47L311.9 47L313.5 47L315.1 47L316.8 47L316.8 48.6L316.8 50.3L315.1 50.3L313.5 50.3L311.9 50.3L311.9 51.9L311.9 53.5L311.9 55.1L311.9 56.8L311.9 58.4L311.9 60L310.3 60L308.6 60L308.6 58.4L308.6 56.8L308.6 55.1L308.6 53.5L308.6 51.9L308.6 50.3L307 50.3L305.4 50.3ZM320 58.4L318.4 58.4L318.4 56.8L318.4 55.1L318.4 53.5L318.4 51.9L318.4 50.3L318.4 48.6L320 48.6L320 47L321.6 47L323.3 47L324.9 47L326.5 47L328.1 47L329.8 47L329.8 48.6L331.4 48.6L331.4 50.3L331.4 51.9L331.4 53.5L331.4 55.1L331.4 56.8L331.4 58.4L329.8 58.4L329.8 60L328.1 60L326.5 60L324.9 60L323.3 60L321.6 60L320 60L320 58.4ZM321.6 55.1L321.6 56.8L323.3 56.8L324.9 56.8L326.5 56.8L328.1 56.8L328.1 55.1L328.1 53.5L328.1 51.9L328.1 50.3L326.5 50.3L324.9 50.3L323.3 50.3L321.6 50.3L321.6 51.9L321.6 53.5L321.6 55.1ZM334.6 60L333 60L333 58.4L333 56.8L333 55.1L333 53.5L333 51.9L333 50.3L333 48.6L333 47L334.6 47L336.3 47L337.9 47L339.5 47L341.1 47L342.8 47L344.4 47L344.4 48.6L346 48.6L346 50.3L346 51.9L346 53.5L346 55.1L344.4 55.1L344.4 56.8L342.8 56.8L341.1 56.8L339.5 56.8L337.9 56.8L336.3 56.8L336.3 58.4L336.3 60L334.6 60ZM336.3 51.9L336.3 53.5L337.9 53.5L339.5 53.5L341.1 53.5L342.8 53.5L342.8 51.9L342.8 50.3L341.1 50.3L339.5 50.3L337.9 50.3L336.3 50.3L336.3 51.9Z M359 60L357.4 60L357.4 58.4L357.4 56.8L359 56.8L360.6 56.8L362.3 56.8L363.9 56.8L365.5 56.8L367.1 56.8L367.1 55.1L365.5 55.1L363.9 55.1L362.3 55.1L360.6 55.1L359 55.1L359 53.5L359 51.9L360.6 51.9L362.3 51.9L363.9 51.9L365.5 51.9L367.1 51.9L367.1 50.3L365.5 50.3L363.9 50.3L362.3 50.3L360.6 50.3L359 50.3L357.4 50.3L357.4 48.6L357.4 47L359 47L360.6 47L362.3 47L363.9 47L365.5 47L367.1 47L368.8 47L368.8 48.6L370.4 48.6L370.4 50.3L370.4 51.9L370.4 53.5L370.4 55.1L370.4 56.8L370.4 58.4L368.8 58.4L368.8 60L367.1 60L365.5 60L363.9 60L362.3 60L360.6 60L359 60Z "/></g><mask id="satori_om-id-1"><rect x="21" y="87" width="358" height="90" fill="#fff"/></mask><mask id="satori_om-id-1-0"><rect x="21" y="93" width="358" height="18" fill="#fff"/></mask><mask id="satori_om-id-1-0-0"><rect x="21" y="93" width="72" height="18" fill="#fff"/></mask><g  ><path fill="#3572A5" d="M22.3 107L21 107L21 105.8L21 104.5L22.3 104.5L23.5 104.5L23.5 103.3L24.8 103.3L24.8 102L24.8 100.8L23.5 100.8L23.5 99.5L22.3 99.5L21 99.5L21 98.3L21 97L22.3 97L23.5 97L24.8 97L24.8 98.3L26 98.3L26 99.5L27.3 99.5L27.3 100.8L28.5 100.8L28.5 102L28.5 103.3L27.3 103.3L27.3 104.5L26 104.5L26 105.8L24.8 105.8L24.8 107L23.5 107L22.3 107Z M38.5 107L37.3 107L37.3 105.8L37.3 104.5L37.3 103.3L37.3 102L37.3 100.8L37.3 99.5L37.3 98.3L37.3 97L38.5 97L39.8 97L41 97L42.3 97L43.5 97L44.8 97L46 97L46 98.3L47.3 98.3L47.3 99.5L47.3 100.8L47.3 102L47.3 103.3L46 103.3L46 104.5L44.8 104.5L43.5 104.5L42.3 104.5L41 104.5L39.8 104.5L39.8 105.8L39.8 107L38.5 107ZM39.8 100.8L39.8 102L41 102L42.3 102L43.5 102L44.8 102L44.8 100.8L44.8 99.5L43.5 99.5L42.3 99.5L41 99.5L39.8 99.5L39.8 100.8ZM49.8 105.8L48.5 105.8L48.5 104.5L48.5 103.3L48.5 102L48.5 100.8L48.5 99.5L48.5 98.3L49.8 98.3L51 98.3L51 99.5L51 100.8L51 102L51 103.3L51 104.5L52.3 104.5L53.5 104.5L53.5 103.3L53.5 102L53.5 100.8L53.5 99.5L53.5 98.3L54.8 98.3L56 98.3L56 99.5L56 100.8L56 102L56 103.3L56 104.5L56 105.8L56 107L56 108.3L56 109.5L54.8 109.5L54.8 110.8L53.5 110.8L52.3 110.8L51 110.8L49.8 110.8L49.8 109.5L49.8 108.3L51 108.3L52.3 108.3L53.5 108.3L53.5 107L52.3 107L51 107L49.8 107L49.8 105.8ZM58.5 100.8L57.3 100.8L57.3 99.5L57.3 98.3L58.5 98.3L58.5 97L59.8 97L61 97L61 98.3L62.3 98.3L63.5 98.3L63.5 99.5L63.5 100.8L62.3 100.8L61 100.8L61 102L61 103.3L61 104.5L62.3 104.5L63.5 104.5L64.8 104.5L64.8 105.8L64.8 107L63.5 107L62.3 107L61 107L59.8 107L59.8 105.8L58.5 105.8L58.5 104.5L58.5 103.3L58.5 102L58.5 100.8ZM67.3 107L66 107L66 105.8L66 104.5L66 103.3L66 102L66 100.8L66 99.5L66 98.3L66 97L67.3 97L68.5 97L68.5 98.3L68.5 99.5L69.8 99.5L71 99.5L72.3 99.5L72.3 100.8L73.5 100.8L73.5 102L73.5 103.3L73.5 104.5L73.5 105.8L73.5 107L72.3 107L71 107L71 105.8L71 104.5L71 103.3L71 102L69.8 102L68.5 102L68.5 103.3L68.5 104.5L68.5 105.8L68.5 107L67.3 107ZM76 105.8L74.8 105.8L74.8 104.5L74.8 103.3L74.8 102L74.8 100.8L74.8 99.5L76 99.5L76 98.3L77.3 98.3L78.5 98.3L79.8 98.3L81 98.3L81 99.5L82.3 99.5L82.3 100.8L82.3 102L82.3 103.3L82.3 104.5L82.3 105.8L81 105.8L81 107L79.8 107L78.5 107L77.3 107L76 107L76 105.8ZM77.3 103.3L77.3 104.5L78.5 104.5L79.8 104.5L79.8 103.3L79.8 102L79.8 100.8L78.5 100.8L77.3 100.8L77.3 102L77.3 103.3ZM84.8 107L83.5 107L83.5 105.8L83.5 104.5L83.5 103.3L83.5 102L83.5 100.8L83.5 99.5L84.8 99.5L84.8 98.3L86 98.3L87.3 98.3L88.5 98.3L89.8 98.3L89.8 99.5L91 99.5L91 100.8L91 102L91 103.3L91 104.5L91 105.8L91 107L89.8 107L88.5 107L88.5 105.8L88.5 104.5L88.5 103.3L88.5 102L88.5 100.8L87.3 100.8L86 100.8L86 102L86 103.3L86 104.5L86 105.8L86 107L84.8 107Z "/></g><mask id="satori_om-id-1-0-1"><rect x="316" y="93" width="63" height="18" fill="#fff"/></mask><g opacity="0.8"></g><g  ><path fill="white" d="M317.3 104.5L316 104.5L316 103.3L316 102L316 100.8L316 99.5L316 98.3L316 97L317.3 97L318.5 97L318.5 98.3L318.5 99.5L318.5 100.8L318.5 102L319.8 102L321 102L321 100.8L321 99.5L322.3 99.5L323.5 99.5L323.5 100.8L323.5 102L324.8 102L326 102L326 103.3L326 104.5L324.8 104.5L323.5 104.5L323.5 105.8L323.5 107L322.3 107L321 107L321 105.8L321 104.5L319.8 104.5L318.5 104.5L317.3 104.5Z M336 107L334.8 107L334.8 105.8L334.8 104.5L334.8 103.3L334.8 102L334.8 100.8L334.8 99.5L334.8 98.3L336 98.3L337.3 98.3L337.3 99.5L338.5 99.5L338.5 98.3L339.8 98.3L341 98.3L342.3 98.3L342.3 99.5L342.3 100.8L341 100.8L339.8 100.8L339.8 102L338.5 102L337.3 102L337.3 103.3L337.3 104.5L337.3 105.8L337.3 107L336 107ZM344.8 105.8L343.5 105.8L343.5 104.5L343.5 103.3L343.5 102L343.5 100.8L343.5 99.5L344.8 99.5L344.8 98.3L346 98.3L347.3 98.3L348.5 98.3L349.8 98.3L349.8 99.5L351 99.5L351 100.8L351 102L351 103.3L349.8 103.3L348.5 103.3L347.3 103.3L346 103.3L346 104.5L347.3 104.5L348.5 104.5L349.8 104.5L351 104.5L351 105.8L351 107L349.8 107L348.5 107L347.3 107L346 107L344.8 107L344.8 105.8ZM346 100.8L346 102L347.3 102L348.5 102L348.5 100.8L347.3 100.8L346 100.8ZM352.3 108.3L352.3 107L352.3 105.8L352.3 104.5L352.3 103.3L352.3 102L352.3 100.8L352.3 99.5L352.3 98.3L353.5 98.3L354.8 98.3L356 98.3L357.3 98.3L358.5 98.3L358.5 99.5L359.8 99.5L359.8 100.8L359.8 102L359.8 103.3L359.8 104.5L359.8 105.8L358.5 105.8L358.5 107L357.3 107L356 107L354.8 107L354.8 108.3L354.8 109.5L354.8 110.8L353.5 110.8L352.3 110.8L352.3 109.5L352.3 108.3ZM354.8 103.3L354.8 104.5L356 104.5L357.3 104.5L357.3 103.3L357.3 102L357.3 100.8L356 100.8L354.8 100.8L354.8 102L354.8 103.3ZM362.3 105.8L361 105.8L361 104.5L361 103.3L361 102L361 100.8L361 99.5L362.3 99.5L362.3 98.3L363.5 98.3L364.8 98.3L366 98.3L367.3 98.3L367.3 99.5L368.5 99.5L368.5 100.8L368.5 102L368.5 103.3L368.5 104.5L368.5 105.8L367.3 105.8L367.3 107L366 107L364.8 107L363.5 107L362.3 107L362.3 105.8ZM363.5 103.3L363.5 104.5L364.8 104.5L366 104.5L366 103.3L366 102L366 100.8L364.8 100.8L363.5 100.8L363.5 102L363.5 103.3ZM371 107L369.8 107L369.8 105.8L369.8 104.5L371 104.5L372.3 104.5L373.5 104.5L373.5 103.3L372.3 103.3L371 103.3L371 102L369.8 102L369.8 100.8L369.8 99.5L371 99.5L371 98.3L372.3 98.3L373.5 98.3L374.8 98.3L376 98.3L377.3 98.3L377.3 99.5L377.3 100.8L376 100.8L374.8 100.8L373.5 100.8L373.5 102L374.8 102L376 102L376 103.3L377.3 103.3L377.3 104.5L377.3 105.8L376 105.8L376 107L374.8 107L373.5 107L372.3 107L371 107Z " opacity="0.8"/></g><mask id="satori_om-id-1-1"><rect x="21" y="123" width="358" height="18" fill="#fff"/></mask><mask id="satori_om-id-1-1-0"><rect x="21" y="123" width="54" height="18" fill="#fff"/></mask><g  ><path fill="#b07219" d="M22.3 137L21 137L21 135.8L21 134.5L22.3 134.5L23.5 134.5L23.5 133.3L24.8 133.3L24.8 132L24.8 130.8L23.5 130.8L23.5 129.5L22.3 129.5L21 129.5L21 128.3L21 127L22.3 127L23.5 127L24.8 127L24.8 128.3L26 128.3L26 129.5L27.3 129.5L27.3 130.8L28.5 130.8L28.5 132L28.5 133.3L27.3 133.3L27.3 134.5L26 134.5L26 135.8L24.8 135.8L24.8 137L23.5 137L22.3 137Z M38.5 135.8L37.3 135.8L37.3 134.5L37.3 133.3L38.5 133.3L39.8 133.3L39.8 134.5L41 134.5L42.3 134.5L42.3 133.3L42.3 132L42.3 130.8L42.3 129.5L41 129.5L39.8 129.5L39.8 128.3L39.8 127L41 127L42.3 127L43.5 127L44.8 127L46 127L47.3 127L47.3 128.3L47.3 129.5L46 129.5L44.8 129.5L44.8 130.8L44.8 132L44.8 133.3L44.8 134.5L44.8 135.8L43.5 135.8L43.5 137L42.3 137L41 137L39.8 137L38.5 137L38.5 135.8ZM49.8 135.8L48.5 135.8L48.5 134.5L48.5 133.3L48.5 132L49.8 132L51 132L52.3 132L53.5 132L53.5 130.8L52.3 130.8L51 130.8L49.8 130.8L48.5 130.8L48.5 129.5L48.5 128.3L49.8 128.3L51 128.3L52.3 128.3L53.5 128.3L54.8 128.3L54.8 129.5L56 129.5L56 130.8L56 132L56 133.3L56 134.5L56 135.8L56 137L54.8 137L53.5 137L52.3 137L51 137L49.8 137L49.8 135.8ZM51 133.3L51 134.5L52.3 134.5L53.5 134.5L53.5 133.3L52.3 133.3L51 133.3ZM58.5 134.5L57.3 134.5L57.3 133.3L57.3 132L57.3 130.8L57.3 129.5L57.3 128.3L58.5 128.3L59.8 128.3L59.8 129.5L59.8 130.8L59.8 132L59.8 133.3L61 133.3L62.3 133.3L62.3 132L62.3 130.8L62.3 129.5L62.3 128.3L63.5 128.3L64.8 128.3L64.8 129.5L64.8 130.8L64.8 132L64.8 133.3L64.8 134.5L63.5 134.5L63.5 135.8L62.3 135.8L62.3 137L61 137L59.8 137L59.8 135.8L58.5 135.8L58.5 134.5ZM67.3 135.8L66 135.8L66 134.5L66 133.3L66 132L67.3 132L68.5 132L69.8 132L71 132L71 130.8L69.8 130.8L68.5 130.8L67.3 130.8L66 130.8L66 129.5L66 128.3L67.3 128.3L68.5 128.3L69.8 128.3L71 128.3L72.3 128.3L72.3 129.5L73.5 129.5L73.5 130.8L73.5 132L73.5 133.3L73.5 134.5L73.5 135.8L73.5 137L72.3 137L71 137L69.8 137L68.5 137L67.3 137L67.3 135.8ZM68.5 133.3L68.5 134.5L69.8 134.5L71 134.5L71 133.3L69.8 133.3L68.5 133.3Z "/></g><mask id="satori_om-id-1-1-1"><rect x="316" y="123" width="63" height="18" fill="#fff"/></mask><g opacity="0.8"></g><g  ><path fill="white" d="M317.3 137L316 137L316 135.8L316 134.5L317.3 134.5L318.5 134.5L319.8 134.5L321 134.5L322.3 134.5L323.5 134.5L323.5 133.3L322.3 133.3L321 133.3L319.8 133.3L318.5 133.3L317.3 133.3L317.3 132L317.3 130.8L318.5 130.8L319.8 130.8L321 130.8L322.3 130.8L323.5 130.8L323.5 129.5L322.3 129.5L321 129.5L319.8 129.5L318.5 129.5L317.3 129.5L316 129.5L316 128.3L316 127L317.3 127L318.5 127L319.8 127L321 127L322.3 127L323.5 127L324.8 127L324.8 128.3L326 128.3L326 129.5L326 130.8L326 132L326 133.3L326 134.5L326 135.8L324.8 135.8L324.8 137L323.5 137L322.3 137L321 137L319.8 137L318.5 137L317.3 137Z M336 137L334.8 137L334.8 135.8L334.8 134.5L334.8 133.3L334.8 132L334.8 130.8L334.8 129.5L334.8 128.3L336 128.3L337.3 128.3L337.3 129.5L338.5 129.5L338.5 128.3L339.8 128.3L341 128.3L342.3 128.3L342.3 129.5L342.3 130.8L341 130.8L339.8 130.8L339.8 132L338.5 132L337.3 132L337.3 133.3L337.3 134.5L337.3 135.8L337.3 137L336 137ZM344.8 135.8L343.5 135.8L343.5 134.5L343.5 133.3L343.5 132L343.5 130.8L343.5 129.5L344.8 129.5L344.8 128.3L346 128.3L347.3 128.3L348.5 128.3L349.8 128.3L349.8 129.5L351 129.5L351 130.8L351 132L351 133.3L349.8 133.3L348.5 133.3L347.3 133.3L346 133.3L346 134.5L347.3 134.5L348.5 134.5L349.8 134.5L351 134.5L351 135.8L351 137L349.8 137L348.5 137L347.3 137L346 137L344.8 137L344.8 135.8ZM346 130.8L346 132L347.3 132L348.5 132L348.5 130.8L347.3 130.8L346 130.8ZM352.3 138.3L352.3 137L352.3 135.8L352.3 134.5L352.3 133.3L352.3 132L352.3 130.8L352.3 129.5L352.3 128.3L353.5 128.3L354.8 128.3L356 128.3L357.3 128.3L358.5 128.3L358.5 129.5L359.8 129.5L359.8 130.8L359.8 132L359.8 133.3L359.8 134.5L359.8 135.8L358.5 135.8L358.5 137L357.3 137L356 137L354.8 137L354.8 138.3L354.8 139.5L354.8 140.8L353.5 140.8L352.3 140.8L352.3 139.5L352.3 138.3ZM354.8 133.3L354.8 134.5L356 134.5L357.3 134.5L357.3 133.3L357.3 132L357.3 130.8L356 130.8L354.8 130.8L354.8 132L354.8 133.3ZM362.3 135.8L361 135.8L361 134.5L361 133.3L361 132L361 130.8L361 129.5L362.3 129.5L362.3 128.3L363.5 128.3L364.8 128.3L366 128.3L367.3 128.3L367.3 129.5L368.5 129.5L368.5 130.8L368.5 132L368.5 133.3L368.5 134.5L368.5 135.8L367.3 135.8L367.3 137L366 137L364.8 137L363.5 137L362.3 137L362.3 135.8ZM363.5 133.3L363.5 134.5L364.8 134.5L366 134.5L366 133.3L366 132L366 130.8L364.8 130.8L363.5 130.8L363.5 132L363.5 133.3ZM371 137L369.8 137L369.8 135.8L369.8 134.5L371 134.5L372.3 134.5L373.5 134.5L373.5 133.3L372.3 133.3L371 133.3L371 132L369.8 132L369.8 130.8L369.8 129.5L371 129.5L371 128.3L372.3 128.3L373.5 128.3L374.8 128.3L376 128.3L377.3 128.3L377.3 129.5L377.3 130.8L376 130.8L374.8 130.8L373.5 130.8L373.5 132L374.8 132L376 132L376 133.3L377.3 133.3L377.3 134.5L377.3 135.8L376 135.8L376 137L374.8 137L373.5 137L372.3 137L371 137Z " opacity="0.8"/></g><mask id="satori_om-id-1-2"><rect x="21" y="153" width="358" height="18" fill="#fff"/></mask><mask id="satori_om-id-1-2-0"><rect x="21" y="153" width="72" height="18" fill="#fff"/></mask><g  ><path fill="#A97BFF" d="M22.3 167L21 167L21 165.8L21 164.5L22.3 164.5L23.5 164.5L23.5 163.3L24.8 163.3L24.8 162L24.8 160.8L23.5 160.8L23.5 159.5L22.3 159.5L21 159.5L21 158.3L21 157L22.3 157L23.5 157L24.8 157L24.8 158.3L26 158.3L26 159.5L27.3 159.5L27.3 160.8L28.5 160.8L28.5 162L28.5 163.3L27.3 163.3L27.3 164.5L26 164.5L26 165.8L24.8 165.8L24.8 167L23.5 167L22.3 167Z M38.5 167L37.3 167L37.3 165.8L37.3 164.5L37.3 163.3L37.3 162L37.3 160.8L37.3 159.5L37.3 158.3L37.3 157L38.5 157L39.8 157L39.8 158.3L39.8 159.5L39.8 160.8L41 160.8L41 159.5L42.3 159.5L42.3 158.3L43.5 158.3L43.5 157L44.8 157L46 157L47.3 157L47.3 158.3L47.3 159.5L46 159.5L44.8 159.5L44.8 160.8L43.5 160.8L43.5 162L44.8 162L44.8 163.3L46 163.3L46 164.5L47.3 164.5L47.3 165.8L47.3 167L46 167L44.8 167L44.8 165.8L43.5 165.8L43.5 164.5L42.3 164.5L42.3 163.3L41 163.3L41 164.5L39.8 164.5L39.8 165.8L39.8 167L38.5 167ZM49.8 165.8L48.5 165.8L48.5 164.5L48.5 163.3L48.5 162L48.5 160.8L48.5 159.5L49.8 159.5L49.8 158.3L51 158.3L52.3 158.3L53.5 158.3L54.8 158.3L54.8 159.5L56 159.5L56 160.8L56 162L56 163.3L56 164.5L56 165.8L54.8 165.8L54.8 167L53.5 167L52.3 167L51 167L49.8 167L49.8 165.8ZM51 163.3L51 164.5L52.3 164.5L53.5 164.5L53.5 163.3L53.5 162L53.5 160.8L52.3 160.8L51 160.8L51 162L51 163.3ZM58.5 160.8L57.3 160.8L57.3 159.5L57.3 158.3L58.5 158.3L58.5 157L59.8 157L61 157L61 158.3L62.3 158.3L63.5 158.3L63.5 159.5L63.5 160.8L62.3 160.8L61 160.8L61 162L61 163.3L61 164.5L62.3 164.5L63.5 164.5L64.8 164.5L64.8 165.8L64.8 167L63.5 167L62.3 167L61 167L59.8 167L59.8 165.8L58.5 165.8L58.5 164.5L58.5 163.3L58.5 162L58.5 160.8ZM67.3 167L66 167L66 165.8L66 164.5L67.3 164.5L68.5 164.5L68.5 163.3L68.5 162L68.5 160.8L68.5 159.5L67.3 159.5L67.3 158.3L67.3 157L68.5 157L69.8 157L71 157L71 158.3L71 159.5L71 160.8L71 162L71 163.3L71 164.5L72.3 164.5L73.5 164.5L73.5 165.8L73.5 167L72.3 167L71 167L69.8 167L68.5 167L67.3 167ZM76 167L74.8 167L74.8 165.8L74.8 164.5L76 164.5L77.3 164.5L77.3 163.3L77.3 162L77.3 160.8L76 160.8L76 159.5L76 158.3L77.3 158.3L78.5 158.3L79.8 158.3L79.8 159.5L79.8 160.8L79.8 162L79.8 163.3L79.8 164.5L81 164.5L82.3 164.5L82.3 165.8L82.3 167L81 167L79.8 167L78.5 167L77.3 167L76 167ZM78.5 157L77.3 157L77.3 155.8L77.3 154.5L78.5 154.5L79.8 154.5L79.8 155.8L79.8 157L78.5 157ZM84.8 167L83.5 167L83.5 165.8L83.5 164.5L83.5 163.3L83.5 162L83.5 160.8L83.5 159.5L84.8 159.5L84.8 158.3L86 158.3L87.3 158.3L88.5 158.3L89.8 158.3L89.8 159.5L91 159.5L91 160.8L91 162L91 163.3L91 164.5L91 165.8L91 167L89.8 167L88.5 167L88.5 165.8L88.5 164.5L88.5 163.3L88.5 162L88.5 160.8L87.3 160.8L86 160.8L86 162L86 163.3L86 164.5L86 165.8L86 167L84.8 167Z "/></g><mask id="satori_om-id-1-2-1"><rect x="316" y="153" width="63" height="18" fill="#fff"/></mask><g opacity="0.8"></g><g  ><path fill="white" d="M317.3 167L316 167L316 165.8L316 164.5L316 163.3L316 162L317.3 162L317.3 160.8L318.5 160.8L319.8 160.8L321 160.8L322.3 160.8L323.5 160.8L323.5 159.5L322.3 159.5L321 159.5L319.8 159.5L318.5 159.5L317.3 159.5L316 159.5L316 158.3L316 157L317.3 157L318.5 157L319.8 157L321 157L322.3 157L323.5 157L324.8 157L324.8 158.3L326 158.3L326 159.5L326 160.8L326 162L324.8 162L324.8 163.3L323.5 163.3L322.3 163.3L321 163.3L319.8 163.3L318.5 163.3L318.5 164.5L319.8 164.5L321 164.5L322.3 164.5L323.5 164.5L324.8 164.5L326 164.5L326 165.8L326 167L324.8 167L323.5 167L322.3 167L321 167L319.8 167L318.5 167L317.3 167Z M336 167L334.8 167L334.8 165.8L334.8 164.5L334.8 163.3L334.8 162L334.8 160.8L334.8 159.5L334.8 158.3L336 158.3L337.3 158.3L337.3 159.5L338.5 159.5L338.5 158.3L339.8 158.3L341 158.3L342.3 158.3L342.3 159.5L342.3 160.8L341 160.8L339.8 160.8L339.8 162L338.5 162L337.3 162L337.3 163.3L337.3 164.5L337.3 165.8L337.3 167L336 167ZM344.8 165.8L343.5 165.8L343.5 164.5L343.5 163.3L343.5 162L343.5 160.8L343.5 159.5L344.8 159.5L344.8 158.3L346 158.3L347.3 158.3L348.5 158.3L349.8 158.3L349.8 159.5L351 159.5L351 160.8L351 162L351 163.3L349.8 163.3L348.5 163.3L347.3 163.3L346 163.3L346 164.5L347.3 164.5L348.5 164.5L349.8 164.5L351 164.5L351 165.8L351 167L349.8 167L348.5 167L347.3 167L346 167L344.8 167L344.8 165.8ZM346 160.8L346 162L347.3 162L348.5 162L348.5 160.8L347.3 160.8L346 160.8ZM352.3 168.3L352.3 167L352.3 165.8L352.3 164.5L352.3 163.3L352.3 162L352.3 160.8L352.3 159.5L352.3 158.3L353.5 158.3L354.8 158.3L356 158.3L357.3 158.3L358.5 158.3L358.5 159.5L359.8 159.5L359.8 160.8L359.8 162L359.8 163.3L359.8 164.5L359.8 165.8L358.5 165.8L358.5 167L357.3 167L356 167L354.8 167L354.8 168.3L354.8 169.5L354.8 170.8L353.5 170.8L352.3 170.8L352.3 169.5L352.3 168.3ZM354.8 163.3L354.8 164.5L356 164.5L357.3 164.5L357.3 163.3L357.3 162L357.3 160.8L356 160.8L354.8 160.8L354.8 162L354.8 163.3ZM362.3 165.8L361 165.8L361 164.5L361 163.3L361 162L361 160.8L361 159.5L362.3 159.5L362.3 158.3L363.5 158.3L364.8 158.3L366 158.3L367.3 158.3L367.3 159.5L368.5 159.5L368.5 160.8L368.5 162L368.5 163.3L368.5 164.5L368.5 165.8L367.3 165.8L367.3 167L366 167L364.8 167L363.5 167L362.3 167L362.3 165.8ZM363.5 163.3L363.5 164.5L364.8 164.5L366 164.5L366 163.3L366 162L366 160.8L364.8 160.8L363.5 160.8L363.5 162L363.5 163.3ZM371 167L369.8 167L369.8 165.8L369.8 164.5L371 164.5L372.3 164.5L373.5 164.5L373.5 163.3L372.3 163.3L371 163.3L371 162L369.8 162L369.8 160.8L369.8 159.5L371 159.5L371 158.3L372.3 158.3L373.5 158.3L374.8 158.3L376 158.3L377.3 158.3L377.3 159.5L377.3 160.8L376 160.8L374.8 160.8L373.5 160.8L373.5 162L374.8 162L376 162L376 163.3L377.3 163.3L377.3 164.5L377.3 165.8L376 165.8L376 167L374.8 167L373.5 167L372.3 167L371 167Z " opacity="0.8"/></g></svg>